<svg height="512pt" viewBox="-54 0 512 512.004" width="512pt" xmlns="http://www.w3.org/2000/svg"><path d="m144.277344 315.90625h60.449218v96.714844h-60.449218zm0 0" fill="#e8916f"/><path d="m304.5 504.5h-260v-60c0-33.136719 26.863281-60 60-60h140c33.136719 0 60 26.863281 60 60zm0 0" fill="#ebe4e2"/><g fill="#d1c4c4"><path d="m244.5 384.5h-30c33.136719 0 60 26.863281 60 60v60h30v-60c0-33.136719-26.863281-60-60-60zm0 0"/><path d="m174.46875 383.386719-30.898438-27.847657c-.734374-.664062-1.84375-.6875-2.609374-.058593l-32.1875 26.511719c-.90625.75-.976563 2.113281-.148438 2.949218l28.019531 28.351563c.734375.746093 1.921875.796875 2.71875.113281zm0 0"/><path d="m174.53125 383.386719 30.898438-27.847657c.738281-.664062 1.847656-.6875 2.613281-.058593l32.183593 26.511719c.910157.75.980469 2.113281.152344 2.949218l-28.019531 28.351563c-.738281.746093-1.925781.796875-2.722656.113281zm0 0"/></g><path d="m65.695312 228.863281v-81.078125c0-56.710937 45.972657-102.683594 102.683594-102.683594h12.246094c56.710938 0 102.679688 45.972657 102.679688 102.683594v81.078125c0 60.089844-48.710938 108.800781-108.800782 108.800781-60.09375.003907-108.808594-48.710937-108.808594-108.800781zm0 0" fill="#ebad88"/><path d="m180.625 45.105469h-12.246094c-4.066406 0-35.75 46.246093-39.691406 46.707031-4.070312 35.003906 18.140625 54.839844 56.339844 69.59375 21 8.113281 34.808594 28.363281 34.808594 50.875v16.582031c0 53.910157-12.011719 98.65625-63.46875 107.289063 5.898437.992187 11.953124 1.515625 18.132812 1.515625 60.09375 0 108.804688-48.714844 108.804688-108.804688v-81.078125c0-56.710937-45.972657-102.679687-102.679688-102.679687zm0 0" fill="#e8916f"/><path d="m153.445312 27.875s17.882813-20.375 55.109376-20.375c60.828124 0 132.945312 101.003906 132.945312 178.710938 0 117.710937-65.800781 131.191406-83.085938 119.917968-10.265624-6.699218-5.992187-35.886718-2.367187-73.773437 4.140625-43.226563-22.898437-83.4375-64.554687-95.699219-22.425782-6.597656-44.914063-17.46875-57.320313-35.375-2.363281-3.410156-7.605469-2.816406-9.222656 1.003906-3.921875 9.253906-10.785157 22.871094-20.652344 33.347656-17.996094 19.097657-27.027344 44.925782-24.574219 71.050782 3.914063 41.671875 6.367188 92.472656-4.0625 98.679687-18.007812 10.710938-64.722656-29.742187-68.046875-95.640625-3.324219-65.902344 67.742188-199.964844 145.832031-181.847656zm0 0" fill="#fdd835"/><path d="m208.554688 7.5c-6.164063 0-11.789063.566406-16.902344 1.5 57.609375 12.742188 119.847656 105.019531 119.847656 177.210938 0 77.863281-28.789062 110.113281-53.285156 119.765624.066406.046876.128906.105469.199218.152344 17.28125 11.273438 83.085938-2.207031 83.085938-119.917968 0-77.707032-72.117188-178.710938-132.945312-178.710938zm0 0" fill="#fbc02d"/><path d="m344.5 494c-16.566406 0-30-13.429688-30-30v-200h60v200c0 16.570312-13.429688 30-30 30zm0 0" fill="#8bebdb"/><path d="m344.5 264v200c0 11.101562-6.035156 20.789062-15 25.976562 4.414062 2.554688 9.535156 4.023438 15 4.023438 16.570312 0 30-13.429688 30-30v-200zm0 0" fill="#00d3b4"/><path d="m377.652344 264h-66.300782c-8.203124 0-14.851562-6.648438-14.851562-14.851562v-.300782c0-8.199218 6.648438-14.847656 14.851562-14.847656h66.300782c8.199218 0 14.851562 6.648438 14.851562 14.847656v.300782c-.003906 8.203124-6.652344 14.851562-14.851562 14.851562zm0 0" fill="#00d3b4"/><path d="m377.652344 234h-30c8.199218 0 14.847656 6.648438 14.847656 14.851562v.300782c0 8.199218-6.648438 14.847656-14.847656 14.847656h30c8.199218 0 14.847656-6.648438 14.847656-14.847656v-.300782c0-8.203124-6.648438-14.851562-14.847656-14.851562zm0 0" fill="#2bade3"/><path d="m396.5 504.5h-68c-24.300781 0-44-19.699219-44-44s19.699219-44 44-44h47.363281c11.398438 0 20.636719 9.242188 20.636719 20.640625zm0 0" fill="#ebad88"/><path d="m375.863281 416.5h-30c11.398438 0 20.636719 9.238281 20.636719 20.640625v67.359375h30v-67.359375c0-11.402344-9.238281-20.640625-20.636719-20.640625zm0 0" fill="#e8916f"/><path d="m191.105469 453.660156c0 8.285156-6.714844 15-15 15-8.28125 0-15-6.714844-15-15s6.71875-15 15-15c8.285156 0 15 6.714844 15 15zm0 0" fill="#62636e"/><path d="m139.765625 244.589844h-43.554687c-12.636719 0-22.878907-10.246094-22.878907-22.878906v-23.355469c0-12.632813 10.242188-22.878907 22.878907-22.878907h43.554687c12.636719 0 22.878906 10.246094 22.878906 22.878907v23.355469c0 12.632812-10.242187 22.878906-22.878906 22.878906zm0 0" fill="#8bebdb"/><path d="m252.660156 244.589844h-43.550781c-12.636719 0-22.882813-10.246094-22.882813-22.878906v-23.355469c0-12.632813 10.246094-22.878907 22.882813-22.878907h43.550781c12.636719 0 22.882813 10.246094 22.882813 22.878907v23.355469c-.003907 12.632812-10.246094 22.878906-22.882813 22.878906zm0 0" fill="#8bebdb"/><path d="m382 409.675781c0-.101562 0-146.628906 0-138.601562 10.25-2.027344 18-11.089844 18-21.921875v-.300782c0-12.324218-10.023438-22.351562-22.347656-22.351562h-31.558594c1.929688-12.371094 2.90625-25.878906 2.90625-40.289062 0-38.445313-16.863281-84.398438-45.113281-122.933594-29.484375-40.214844-64.230469-63.277344-95.335938-63.277344-31.382812 0-50.316406 13.4375-57.480469 19.753906-31.738281-5.445312-65.292968 11.082032-94.921874 46.90625-2.640626 3.191406-2.191407 7.921875.996093 10.5625 3.195313 2.640625 7.921875 2.191406 10.5625-1 15.6875-18.96875 47.472657-49.523437 84.039063-41.035156 2.660156.617188 5.476562-.296875 7.300781-2.324219.65625-.730469 16.472656-17.863281 49.503906-17.863281 55.105469 0 125.449219 96.007812 125.449219 171.210938 0 14.554687-1.042969 28.074218-3.101562 40.289062h-19.546876c-12.324218 0-22.351562 10.027344-22.351562 22.351562v.300782c0 10.832031 7.753906 19.894531 18 21.921875v12.242187c-18.441406 21.035156-41.96875 21.230469-45.539062 15.035156-.828126-1.773437-1.847657-5.546874-1.953126-13.417968-.121093-9.054688.929688-20.75 2.269532-34.242188 12.3125-3.878906 21.265625-15.40625 21.265625-28.980468v-23.351563c0-16.753906-13.628907-30.382813-30.378907-30.382813h-5.988281c-12.742187-18.539062-31.4375-32.140624-53.066406-38.511718-25.660156-7.554688-43.585937-18.476563-53.269531-32.453125-2.636719-3.8125-7.164063-5.886719-11.777344-5.40625-4.660156.476562-8.6875 3.445312-10.515625 7.75-3.769531 8.902343-10.15625 21.527343-19.203125 31.132812-12.484375 13.246094-21.039062 29.507813-24.832031 47.15625-5.070313 5.429688-8.175781 12.714844-8.175781 20.714844v23.351563c0 8.480468 3.492187 16.160156 9.113281 21.679687.453125 8.828125 2.023437 48.617187-3.363281 55.660156-2.414063 1.203125-6.9375.316407-11.925782-2.355469-16.585937-8.882812-42.136718-39.476562-44.558594-87.351562-1.433593-28.480469 12.382813-71.675781 34.382813-107.488281 2.167969-3.53125 1.0625-8.148438-2.464844-10.316407-3.53125-2.171874-8.148437-1.066406-10.316406 2.464844-23.820313 38.78125-38.179687 84.351563-36.578125 116.097656 1.160156 23.027344 7.535156 45.171876 18.429688 64.035157 9.328124 16.15625 21.730468 29.199219 34.023437 35.78125 8.453125 4.527343 18.644531 6.8125 26.917969 1.890625 2.3125-1.375 4.523437-3.519532 6.355468-7.664063 2.042969 2.40625 4.183594 4.726563 6.417969 6.960938 12.75 12.75 27.9375 22.175781 44.511719 27.839843v10.300782c-.199219.140625-.394531.289062-.585938.449218l-32.1875 26.511719c-.304687.253907-.59375.523438-.863281.8125-36.59375.726563-66.140625 30.71875-66.140625 67.484375v60c0 4.144532 3.355469 7.5 7.5 7.5h29c4.140625 0 7.5-3.355468 7.5-7.5 0-4.144531-3.359375-7.5-7.5-7.5h-21.5v-52.5c0-28.949218 23.550782-52.5 52.5-52.5h.550782l26.253906 26.5625c3.488281 3.527344 9.164062 3.761719 12.933594.542969l30.261718-25.878906 30.261719 25.882812c3.757813 3.210938 9.4375 2.988281 12.929687-.546875l26.253907-26.566406h.550781c21.113281 0 39.898438 12.496094 48.160156 31.550781-9.652344 9.367188-15.660156 22.46875-15.660156 36.949219 0 14.25 5.820312 27.167969 15.203125 36.5h-186.699219c-4.144531 0-7.5 3.355469-7.5 7.5s3.355469 7.5 7.5 7.5h199c2.539063 0 4.78125-1.261719 6.140625-3.191406 5.566407 2.0625 11.582031 3.191406 17.859375 3.191406h68c4.140625 0 7.5-3.355469 7.5-7.5v-67.359375c-.003906-13.410156-9.429687-24.65625-22.003906-27.464844zm-78-160.527343v-.300782c0-4.050781 3.296875-7.347656 7.351562-7.347656h66.300782c4.054687 0 7.351562 3.296875 7.351562 7.347656v.300782c0 4.054687-3.296875 7.351562-7.351562 7.351562h-66.300782c-4.054687 0-7.351562-3.296875-7.351562-7.351562zm-35.960938-50.792969v23.355469c0 8.476562-6.898437 15.378906-15.378906 15.378906h-43.554687c-8.476563 0-15.378907-6.898438-15.378907-15.378906v-23.355469c0-8.476563 6.898438-15.378907 15.378907-15.378907.425781 0 43.921875.007813 43.554687 0 8.480469 0 15.378906 6.902344 15.378906 15.378907zm-158.277343-57.585938c9.394531-9.972656 16.191406-22.390625 20.566406-32.070312 12.007813 15.332031 31.847656 27.148437 59.046875 35.15625 14.828125 4.363281 28.03125 12.75 38.25 24.121093h-18.519531c-16.75 0-30.378907 13.628907-30.378907 30.378907v4.175781h-8.582031v-4.175781c0-16.75-13.628906-30.378907-30.378906-30.378907h-43.554687c-1.277344 0-2.539063.082032-3.777344.234376 3.910156-10.105469 9.773437-19.421876 17.328125-27.441407zm-28.929688 80.941407v-23.355469c0-8.476563 6.898438-15.378907 15.382813-15.378907h43.550781c8.480469 0 15.378906 6.898438 15.378906 15.378907v23.355469c0 8.476562-6.898437 15.378906-15.378906 15.378906h-43.550781c-8.484375 0-15.382813-6.902344-15.382813-15.378906zm9.089844 62.910156c.707031-8.242188.902344-18.996094.398437-33.105469 1.90625.375 3.878907.574219 5.894532.574219h43.550781c16.753906 0 30.378906-13.628906 30.378906-30.378906v-4.179688h8.585938v4.179688c0 16.75 13.625 30.378906 30.378906 30.378906h37.457031c-2.058594 21.050781-3.234375 37.367187-.257812 48.222656-18.953125 19.027344-44.871094 29.859375-71.804688 29.859375-27.058594 0-52.492187-10.539063-71.628906-29.675781-4.851562-4.851563-9.199219-10.183594-12.953125-15.875zm84.582031 60.550781c7.679688 0 15.285156-.769531 22.71875-2.257813v9.929688l-22.71875 20.472656-22.722656-20.472656v-9.878906c7.40625 1.457031 15.003906 2.207031 22.722656 2.207031zm-36.121094 59.207031-20.191406-20.425781 23.878906-19.671875 21.035157 18.957031zm72.238282 0-24.722656-21.140625 21.035156-18.957031 23.878906 19.671875zm35.238281-27.367187c-.269531-.285157-.554687-.554688-.863281-.808594l-32.191406-26.515625c-.1875-.15625-.382813-.304688-.582032-.441406v-10.390625c15.855469-5.449219 30.488282-14.292969 42.75-26.035157 4.183594 2.507813 9.902344 3.953126 16.460938 3.953126 10.640625 0 23.488281-3.796876 35.566406-13.003907v15.980469c0 4.144531 3.359375 7.5 7.5 7.5 4.144531 0 7.5-3.355469 7.5-7.5v-48.25h45v10.75h-22.5c-4.140625 0-7.5 3.355469-7.5 7.5s3.359375 7.5 7.5 7.5h22.5v18.605469h-22.5c-4.140625 0-7.5 3.355469-7.5 7.5 0 4.140625 3.359375 7.5 7.5 7.5h22.5v18.605469h-22.5c-4.140625 0-7.5 3.355468-7.5 7.5 0 4.140624 3.359375 7.5 7.5 7.5h22.5v18.601562h-22.5c-4.140625 0-7.5 3.359375-7.5 7.5 0 4.144531 3.359375 7.5 7.5 7.5h22.5v10.9375h-38.5c-2.199219 0-4.371094.140625-6.5.40625v-57.65625c0-4.144531-3.355469-7.5-7.5-7.5-4.140625 0-7.5 3.355469-7.5 7.5v61.953125c-.652344.304687-1.296875.617187-1.933594.945313-11.027344-22.453126-33.710937-37.128907-59.207031-37.636719zm143.140625 119.988281h-60.5c-20.125 0-36.5-16.375-36.5-36.5s16.375-36.5 36.5-36.5h47.359375c7.246094 0 13.140625 5.894531 13.140625 13.140625zm0 0"/><path d="m198.605469 453.660156c0-12.40625-10.09375-22.5-22.5-22.5s-22.5 10.09375-22.5 22.5 10.09375 22.5 22.5 22.5 22.5-10.09375 22.5-22.5zm-30 0c0-4.136718 3.367187-7.5 7.5-7.5 4.136719 0 7.5 3.363282 7.5 7.5 0 4.136719-3.363281 7.5-7.5 7.5-4.132813 0-7.5-3.363281-7.5-7.5zm0 0"/></svg>