<svg height="464pt" viewBox="0 0 464 464" width="464pt" xmlns="http://www.w3.org/2000/svg"><path d="m160 48v224h288c8.824219-.027344 15.972656-7.175781 16-16v-208zm0 0" fill="#78b9eb"/><path d="m160 320c53.019531 0 96 42.980469 96 96v48h-256v-48c0-53.019531 42.980469-96 96-96l32 40zm0 0" fill="#00ccb3"/><path d="m64 224v8h-8c-8.808594-.066406-15.933594-7.191406-16-16 .027344-8.824219 7.175781-15.972656 16-16h8zm0 0" fill="#f1cfa2"/><path d="m216 216c-.066406 8.808594-7.191406 15.933594-16 16h-8v-32h8c8.824219.027344 15.972656 7.175781 16 16zm0 0" fill="#f1cfa2"/><path d="m160 288v32l-32 40-32-40v-32zm0 0" fill="#ffdaaa"/><path d="m128 152c-16.78125 18.027344-39.507812 29.390625-64 32v72c0 17.671875 14.328125 32 32 32h64c17.65625-.042969 31.957031-14.34375 32-32v-72.398438c-24.039062-3.8125-46.359375-14.832031-64-31.601562zm0 0" fill="#ffdaaa"/><path d="m200 176v8c-2.71875 0-5.359375-.160156-8-.398438-24.039062-3.8125-46.359375-14.832031-64-31.601562-16.78125 18.027344-39.507812 29.390625-64 32-2.664062.207031-5.335938.207031-8 0v-8c0-39.765625 32.234375-72 72-72s72 32.234375 72 72zm0 0" fill="#787680"/><path d="m176 0h272c8.824219.0273438 15.972656 7.175781 16 16v32h-304v-32c.027344-8.824219 7.175781-15.9726562 16-16zm0 0" fill="#ff7956"/><path d="m40 416h16v48h-16zm0 0" fill="#00b39d"/><path d="m200 416h16v48h-16zm0 0" fill="#00b39d"/><path d="m192 184h-48c-4.417969 0-8 3.582031-8 8h-16c0-4.417969-3.582031-8-8-8h-48c-4.417969 0-8 3.582031-8 8v32c0 4.417969 3.582031 8 8 8h48c4.417969 0 8-3.582031 8-8v-16h16v16c0 4.417969 3.582031 8 8 8h48c4.417969 0 8-3.582031 8-8v-32c0-4.417969-3.582031-8-8-8zm-88 32h-32v-16h32zm80 0h-32v-16h32zm0 0" fill="#ff9811"/><path d="m184 16h16v16h-16zm0 0" fill="#ff5023"/><path d="m216 16h16v16h-16zm0 0" fill="#ffd422"/><path d="m248 16h16v16h-16zm0 0" fill="#00ccb3"/><g fill="#1e81ce"><path d="m266.34375 181.65625-24-24c-3.121094-3.125-3.121094-8.1875 0-11.3125l24-24 11.3125 11.3125-18.34375 18.34375 18.34375 18.34375zm0 0"/><path d="m373.65625 181.65625-11.3125-11.3125 18.34375-18.34375-18.34375-18.34375 11.3125-11.3125 24 24c3.121094 3.125 3.121094 8.1875 0 11.3125zm0 0"/><path d="m296.585938 189.035156 31.96875-80.007812 14.859374 5.9375-31.96875 80.007812zm0 0"/></g></svg>